# xmcd
#
# Track frame offsets: 
#        150
#        14085
#        35867
#        60635
#        81517
#        104122
#        125192
#        144082
#        163285
#        190897
#        205870
#        223237
#        242297
#
# Disc length: 3465 seconds
#
# Revision: 24
# Processed by: cddbd v1.5.2PL0 Copyright (c) Steve Scherf et al.
# Submitted via: ExactAudioCopyFreeDBPlugin 1.0
#
DISCID=cd0d870d
DTITLE=Chris Rea - Stony Road
DYEAR=2002
DGENRE=Rock
TTITLE0=Changing Times
TTITLE1=Easy Rider
TTITLE2=Stony Road
TTITLE3=Dancing The Blues Away
TTITLE4=Burning Feet
TTITLE5=Mississippi
TTITLE6=Slow Dance
TTITLE7=When The Good Lord Talked To Jesus
TTITLE8=Heading For The City
TTITLE9=So Lonely
TTITLE10=Someday My Peace Will Come
TTITLE11=The Hustler
TTITLE12=Give That Girl A Diamond
EXTD=YEAR: 2002
EXTT0=
EXTT1=
EXTT2=
EXTT3=
EXTT4=
EXTT5=
EXTT6=
EXTT7=
EXTT8=
EXTT9=
EXTT10=
EXTT11=
EXTT12=
PLAYORDER=
